<svg width="618" height="496" viewBox="0 0 618 496" fill="none" xmlns="http://www.w3.org/2000/svg">
<g clip-path="url(#clip0_207_9)">
<path d="M618 167.799V296.844H283.354V167.799C283.293 131.482 295.04 96.136 316.813 67.1166C331.419 47.5834 350.101 31.4825 371.553 19.9379C393.006 8.39328 416.712 1.68315 441.018 0.275958C444.209 0.0889161 447.428 -0.00237541 450.677 0.00207796C452.522 0.00207796 454.367 0.0287978 456.192 0.0955984C498.647 1.44407 538.99 18.988 568.986 49.1473C569.892 50.0558 570.778 50.9709 571.671 51.8928C576.256 56.7088 580.553 61.7923 584.54 67.1166C606.311 96.1375 618.057 131.483 618 167.799Z" fill="#3F3D56"/>
<path d="M534.659 162.649C559.01 162.649 578.751 142.852 578.751 118.432C578.751 94.0114 559.01 74.2148 534.659 74.2148C510.307 74.2148 490.566 94.0114 490.566 118.432C490.566 142.852 510.307 162.649 534.659 162.649Z" fill="#6C63FF"/>
<path opacity="0.2" d="M530.321 93.0614C533.116 93.0614 535.381 90.7896 535.381 87.9873C535.381 85.1849 533.116 82.9132 530.321 82.9132C527.527 82.9132 525.262 85.1849 525.262 87.9873C525.262 90.7896 527.527 93.0614 530.321 93.0614Z" fill="black"/>
<path opacity="0.2" d="M538.995 143.802C541.79 143.802 544.055 141.53 544.055 138.728C544.055 135.926 541.79 133.654 538.995 133.654C536.201 133.654 533.936 135.926 533.936 138.728C533.936 141.53 536.201 143.802 538.995 143.802Z" fill="black"/>
<path opacity="0.2" d="M558.512 114.083C560.508 114.083 562.126 112.46 562.126 110.458C562.126 108.457 560.508 106.834 558.512 106.834C556.516 106.834 554.897 108.457 554.897 110.458C554.897 112.46 556.516 114.083 558.512 114.083Z" fill="black"/>
<path opacity="0.2" d="M517.311 133.654C523.699 133.654 528.876 128.461 528.876 122.056C528.876 115.651 523.699 110.458 517.311 110.458C510.924 110.458 505.746 115.651 505.746 122.056C505.746 128.461 510.924 133.654 517.311 133.654Z" fill="black"/>
<path opacity="0.8" d="M396.052 239.855L418.015 214.071L439.977 188.287L452.375 173.731C453.061 172.926 452.002 171.67 451.317 172.475L429.354 198.259L407.392 224.043L394.994 238.598C394.308 239.404 395.366 240.66 396.052 239.855V239.855Z" fill="url(#paint0_linear_207_9)"/>
<path opacity="0.8" d="M394.054 126.294L416.017 100.51L437.979 74.7258L450.377 60.1703C451.063 59.3649 450.005 58.1085 449.319 58.9138L427.356 84.6979L405.394 110.482L392.996 125.037C392.31 125.843 393.368 127.099 394.054 126.294V126.294Z" fill="url(#paint1_linear_207_9)"/>
<path d="M456.195 0.0968953V296.843H441.016V0.27676C444.21 0.089968 447.43 -0.00228228 450.675 1.12098e-05C452.525 1.12098e-05 454.367 0.0276765 456.195 0.0968953Z" fill="white"/>
<path d="M584.54 67.1182H316.811C320.796 61.7932 325.093 56.71 329.679 51.8955H571.671C576.257 56.71 580.554 61.7932 584.54 67.1182Z" fill="white"/>
<path d="M580.603 198.819C582.522 198.819 584.077 197.259 584.077 195.335C584.077 193.411 582.522 191.851 580.603 191.851C578.684 191.851 577.129 193.411 577.129 195.335C577.129 197.259 578.684 198.819 580.603 198.819Z" fill="#E6E6E6"/>
<path d="M356.121 170.095C358.039 170.095 359.595 168.535 359.595 166.611C359.595 164.687 358.039 163.127 356.121 163.127C354.202 163.127 352.646 164.687 352.646 166.611C352.646 168.535 354.202 170.095 356.121 170.095Z" fill="#E6E6E6"/>
<path d="M514.665 182.195L512.931 183.923L511.209 182.183L510.053 183.335L511.775 185.074L510.041 186.801L511.189 187.96L512.923 186.233L514.645 187.972L515.802 186.821L514.079 185.082L515.813 183.355L514.665 182.195Z" fill="#E6E6E6"/>
<path d="M322.822 216.932L321.089 218.659L319.366 216.92L318.21 218.071L319.932 219.81L318.198 221.538L319.346 222.697L321.081 220.97L322.802 222.709L323.959 221.557L322.236 219.818L323.97 218.091L322.822 216.932Z" fill="#E6E6E6"/>
<path d="M495.348 236.972L493.614 238.699L491.891 236.96L490.736 238.111L492.458 239.85L490.724 241.578L491.871 242.737L493.606 241.01L495.328 242.749L496.484 241.597L494.762 239.858L496.496 238.131L495.348 236.972Z" fill="#E6E6E6"/>
<path d="M378.111 83.3304L376.377 85.0579L374.654 83.3184L373.498 84.47L375.22 86.2089L373.486 87.9363L374.634 89.0953L376.369 87.3685L378.091 89.1073L379.247 87.9557L377.524 86.2169L379.258 84.4901L378.111 83.3304Z" fill="#E6E6E6"/>
<path d="M403.733 471.481H0V472.817H403.733V471.481Z" fill="#E6E6E6"/>
<path d="M64.2301 363.772C55.404 376.284 53.0725 447.493 52.553 470.319C52.5396 470.833 52.5263 471.321 52.5197 471.782H30.178C29.9049 471.294 29.6517 470.813 29.4119 470.319C16.1694 444.107 23.5168 412.677 23.9031 411.087C22.8973 416.084 27.4469 430.566 32.5893 444.594C35.7267 401.461 62.5514 365.95 64.2301 363.772Z" fill="#E6E6E6"/>
<path d="M201.998 299.66L199.469 310.649C199.469 310.649 200.312 336.007 193.569 333.471C186.826 330.935 188.512 308.958 188.512 308.958L194.412 297.97L201.998 299.66Z" fill="#FFB8B8"/>
<path d="M164.489 179.21C173.8 179.21 181.347 171.641 181.347 162.304C181.347 152.968 173.8 145.399 164.489 145.399C155.179 145.399 147.632 152.968 147.632 162.304C147.632 171.641 155.179 179.21 164.489 179.21Z" fill="#FFB8B8"/>
<path d="M151.425 166.953L149.739 191.466L170.811 194.002C170.811 194.002 170.811 173.716 172.497 171.18C174.183 168.644 151.425 166.953 151.425 166.953Z" fill="#FFB8B8"/>
<path d="M198.156 198.876L170.852 187.308C170.852 187.308 157.804 177.23 150.162 184.696L146.733 189.623C146.733 189.623 116.399 201.483 116.407 210.781L128.248 257.261C128.248 257.261 121.528 283.47 131.644 285.151L186.436 290.175C186.436 290.175 194.014 280.87 187.26 269.043L189.765 241.147L198.156 198.876Z" fill="#E6E6E6"/>
<path d="M179.613 199.737L198.156 198.876C198.156 198.876 204.058 200.561 208.286 216.617C212.514 232.674 213.38 258.876 213.38 258.876L203.307 306.22L190.662 304.541L195.68 258.892L187.224 228.47L179.613 199.737Z" fill="#E6E6E6"/>
<path d="M126.516 204.855L117.376 207.719C117.376 207.719 109.671 219.24 109.676 225.157C109.681 231.074 106.349 275.876 106.349 275.876L128.295 312.203L135.023 294.446L121.517 271.636L132.45 243.733L126.516 204.855Z" fill="#E6E6E6"/>
<path d="M188.933 288.249L128.332 282.902C128.332 282.902 122.345 321.215 123.188 336.43C124.031 351.644 124.874 375.312 124.874 375.312L118.131 478.435L144.26 475.054L147.632 389.681L158.589 343.192L171.232 402.36L179.661 478.435L202.419 475.899L194.833 383.765C194.833 383.765 201.576 300.928 188.933 288.249Z" fill="#2F2E41"/>
<path d="M197.363 471.672L204.948 474.208C204.948 474.208 220.963 469.982 216.749 480.97C212.534 491.959 200.734 490.268 200.734 490.268C200.734 490.268 186.405 501.257 180.505 492.804L183.876 475.054L197.363 471.672Z" fill="#2F2E41"/>
<path d="M135.831 471.672L143.417 474.208C143.417 474.208 159.432 469.982 155.218 480.97C151.003 491.959 139.203 490.268 139.203 490.268C139.203 490.268 124.874 501.257 118.974 492.804L122.345 475.054L135.831 471.672Z" fill="#2F2E41"/>
<path d="M151.425 177.097C151.425 177.097 133.725 164.418 142.996 149.203C149.429 138.648 162.757 139.483 170.318 140.985C172.354 141.362 174.269 142.23 175.897 143.514C177.525 144.799 178.817 146.461 179.662 148.357C180.926 151.316 180.926 154.274 175.869 154.274C165.754 154.274 170.811 161.882 170.811 161.882C170.811 161.882 164.068 163.572 165.754 169.489C167.44 175.406 151.425 177.097 151.425 177.097Z" fill="#2F2E41"/>
</g>
<defs>
<linearGradient id="paint0_linear_207_9" x1="394.771" y1="206.165" x2="452.597" y2="206.165" gradientUnits="userSpaceOnUse">
<stop stop-color="white"/>
<stop offset="1" stop-color="white" stop-opacity="0.3"/>
</linearGradient>
<linearGradient id="paint1_linear_207_9" x1="42360.7" y1="14817.9" x2="47380.6" y2="14817.9" gradientUnits="userSpaceOnUse">
<stop stop-color="white"/>
<stop offset="1" stop-color="white" stop-opacity="0.3"/>
</linearGradient>
<clipPath id="clip0_207_9">
<rect width="618" height="496" fill="white"/>
</clipPath>
</defs>
</svg>
